<svg width="96" height="96" viewBox="0 0 96 96" fill="none" xmlns="http://www.w3.org/2000/svg">
<mask id="mask0_2601_251820" style="mask-type:alpha" maskUnits="userSpaceOnUse" x="0" y="0" width="96" height="96">
<path d="M76.7779 0.543945H19.2221C8.90635 0.543945 0.543777 8.90652 0.543777 19.2223V76.7781C0.543777 87.0938 8.90635 95.4564 19.2221 95.4564H76.7779C87.0937 95.4564 95.4562 87.0938 95.4562 76.7781V19.2223C95.4562 8.90652 87.0937 0.543945 76.7779 0.543945Z" fill="#1A1A1A" stroke="#1A1A1A" stroke-width="1.08754" stroke-miterlimit="19.3" stroke-linejoin="round"/>
</mask>
<g mask="url(#mask0_2601_251820)">
<path d="M77.2341 1H19.6783C9.36257 1 1 9.36257 1 19.6783V77.2341C1 87.5499 9.36257 95.9125 19.6783 95.9125H77.2341C87.5499 95.9125 95.9125 87.5499 95.9125 77.2341V19.6783C95.9125 9.36257 87.5499 1 77.2341 1Z" fill="#1A1A1A" stroke="#1A1A1A" stroke-width="1.08754" stroke-miterlimit="19.3" stroke-linejoin="round"/>
<rect x="70" y="48" width="26" height="28" fill="#C3D2EB"/>
<rect y="82" width="21" height="14" fill="#DB6E52"/>
<path fill-rule="evenodd" clip-rule="evenodd" d="M25.2557 32.7905V14.2236H17.7205V16.2268H22.779V32.7905H17.7205V34.8774H30.5V32.7905H25.2557Z" fill="#F9F9F9"/>
<path fill-rule="evenodd" clip-rule="evenodd" d="M45.8591 14C50.2066 14 52.9927 16.899 52.9927 23.3918C52.9927 33.819 47.6134 34.8834 43.0416 34.9518L42.757 34.9549C42.7097 34.9552 42.6626 34.9555 42.6155 34.9556L39.2617 34.9558V32.8662H42.7267C45.8192 32.8662 50.456 32.4359 50.456 24.7007H50.3451C49.4532 26.2608 47.7265 27.1811 45.4121 27.1811C42.5418 27.1811 39.0862 25.3693 39.0862 20.7439C39.0862 16.8705 41.8748 14 45.8591 14ZM45.8025 16.1184C43.74 16.1184 41.65 17.4832 41.65 20.6882C41.65 23.5584 43.5743 25.1183 45.8591 25.1183C48.3392 25.1183 50.1769 23.5584 50.1769 20.6882C50.1769 17.6511 48.0034 16.1184 45.8025 16.1184Z" fill="#F9F9F9"/>
<path fill-rule="evenodd" clip-rule="evenodd" d="M24.0959 42.9561C28.2428 42.9561 30.6358 45.4049 30.6358 48.4934C30.6358 51.026 28.994 52.8069 27.2685 53.3633V53.4193C29.0496 53.8363 31.2197 55.3946 31.2197 58.5115C31.2197 61.8225 28.7433 64.2714 24.0959 64.3273C19.4492 64.383 17 61.8781 17 58.5115C17 55.3946 19.2266 53.8363 20.9518 53.4193V53.3633C19.2266 52.8069 17.5849 50.9979 17.5849 48.4934C17.5849 45.4049 19.95 42.9561 24.0959 42.9561ZM24.0959 54.4487C21.759 54.4487 19.5883 55.6731 19.5883 58.3999C19.5883 61.127 21.7311 62.3239 24.0959 62.3239C26.5729 62.3239 28.6601 61.127 28.6601 58.3999C28.6601 55.6731 26.5451 54.4487 24.0959 54.4487ZM24.0959 44.9595C22.0094 44.9595 20.1725 46.1561 20.1725 48.7163C20.1725 51.2208 22.0372 52.4727 24.0959 52.4727C26.1281 52.4727 28.02 51.2208 28.02 48.7163C28.02 46.1561 26.1556 44.9595 24.0959 44.9595Z" fill="#F9F9F9"/>
<path fill-rule="evenodd" clip-rule="evenodd" d="M41.4749 56.7225V43.2305H39.0789V58.8088H47.9016V63.8799H50.2976V58.8088H53V56.6903H50.2976V47.824H47.9016V56.7225H41.4749Z" fill="#F9F9F9"/>
<rect x="21" y="76" width="75" height="20" fill="#404CD8"/>
</g>
</svg>
