<svg id='Save_24' width='24' height='24' viewBox='0 0 24 24' xmlns='http://www.w3.org/2000/svg' xmlns:xlink='http://www.w3.org/1999/xlink'><rect width='24' height='24' stroke='none' fill='#000000' opacity='0'/>


<g transform="matrix(0.48 0 0 0.48 12 12)" >
<path style="stroke: none; stroke-width: 1; stroke-dasharray: none; stroke-linecap: butt; stroke-dashoffset: 0; stroke-linejoin: miter; stroke-miterlimit: 4; fill: rgb(0,0,0); fill-rule: nonzero; opacity: 1;" transform=" translate(-25, -25)" d="M 7 4 C 5.3545455 4 4 5.3545455 4 7 L 4 43 C 4 44.645455 5.3545455 46 7 46 L 43 46 C 44.645455 46 46 44.645455 46 43 L 46 13.199219 C 45.99994882191271 12.934020079678682 45.89456729090115 12.679699625116491 45.707031 12.492188 L 37.507812 4.2929688 C 37.3203003421418 4.105432582442258 37.065979891616884 4.000051125044005 36.800781 4 L 7 4 z M 7 6 L 12 6 L 12 18 C 12 19.645455 13.354545 21 15 21 L 34 21 C 35.645455 21 37 19.645455 37 18 L 37 6.6132812 L 44 13.613281 L 44 43 C 44 43.554545 43.554545 44 43 44 L 38 44 L 38 29 C 38 27.354545 36.645455 26 35 26 L 15 26 C 13.354545 26 12 27.354545 12 29 L 12 44 L 7 44 C 6.4454545 44 6 43.554545 6 43 L 6 7 C 6 6.4454545 6.4454545 6 7 6 z M 14 6 L 35 6 L 35 18 C 35 18.554545 34.554545 19 34 19 L 15 19 C 14.445455 19 14 18.554545 14 18 L 14 6 z M 29 8 C 28.44773812379154 8.00005521790535 28.00005521790535 8.447738123791542 28 9 L 28 16 C 28.00005521790535 16.55226187620846 28.44773812379154 16.99994478209465 29 17 L 32 17 C 32.55226187620846 16.99994478209465 32.99994478209465 16.55226187620846 33 16 L 33 9 C 32.99994478209465 8.447738123791542 32.55226187620846 8.000055217905349 32 8 L 29 8 z M 30 10 L 31 10 L 31 15 L 30 15 L 30 10 z M 15 28 L 35 28 C 35.554545 28 36 28.445455 36 29 L 36 44 L 14 44 L 14 29 C 14 28.445455 14.445455 28 15 28 z M 8 40 L 8 42 L 10 42 L 10 40 L 8 40 z M 40 40 L 40 42 L 42 42 L 42 40 L 40 40 z" stroke-linecap="round" />
</g>
</svg>