<svg id='Save_as_24' width='24' height='24' viewBox='0 0 24 24' xmlns='http://www.w3.org/2000/svg' xmlns:xlink='http://www.w3.org/1999/xlink'><rect width='24' height='24' stroke='none' fill='#000000' opacity='0'/>


<g transform="matrix(0.42 0 0 0.42 12 12)" >
<path style="stroke: none; stroke-width: 1; stroke-dasharray: none; stroke-linecap: butt; stroke-dashoffset: 0; stroke-linejoin: miter; stroke-miterlimit: 4; fill: rgb(0,0,0); fill-rule: nonzero; opacity: 1;" transform=" translate(-26, -25)" d="M 5 2 C 3.347656 2 2 3.347656 2 5 L 2 45 C 2 46.652344 3.347656 48 5 48 L 45 48 C 46.652344 48 48 46.652344 48 45 L 48 28 L 46 30 L 46 45 C 46 45.550781 45.550781 46 45 46 L 40 46 L 40 36 L 38 38 L 38 46 L 12 46 L 12 28.8125 C 12 28.371094 12.371094 28 12.8125 28 L 32 28 L 34 26 L 12.8125 26 C 11.269531 26 10 27.269531 10 28.8125 L 10 46 L 5 46 C 4.449219 46 4 45.550781 4 45 L 4 5 C 4 4.449219 4.449219 4 5 4 L 10 4 L 10 19 C 10 20.09375 10.90625 21 12 21 L 35 21 C 36.09375 21 37 20.09375 37 19 L 37 4 L 37.59375 4 L 46 12.40625 L 46 16 C 47.101563 16 48 16.375 48 16.375 L 48 12 C 48 11.734375 47.90625 11.46875 47.71875 11.28125 L 38.71875 2.28125 C 38.53125 2.09375 38.265625 2 38 2 Z M 12 4 L 35 4 L 35 19 L 12 19 Z M 28.8125 6 C 28.335938 6.089844 27.992188 6.511719 28 7 L 28 16 C 28 16.550781 28.449219 17 29 17 L 32 17 C 32.550781 17 33 16.550781 33 16 L 33 7 C 33 6.449219 32.550781 6 32 6 L 29 6 C 28.96875 6 28.9375 6 28.90625 6 C 28.875 6 28.84375 6 28.8125 6 Z M 30 8 L 31 8 L 31 15 L 30 15 Z M 45.9375 18 C 44.894531 18 43.828125 18.390625 43.03125 19.1875 L 42.8125 19.4375 C 42.730469 19.488281 42.65625 19.550781 42.59375 19.625 L 26.90625 35.3125 C 26.777344 35.429688 26.679688 35.582031 26.625 35.75 L 25.03125 41.75 C 24.941406 42.09375 25.042969 42.457031 25.292969 42.707031 C 25.542969 42.957031 25.90625 43.058594 26.25 42.96875 L 32.25 41.375 C 32.417969 41.320313 32.570313 41.222656 32.6875 41.09375 L 48.125 25.65625 C 48.125 25.65625 48.257813 25.523438 48.375 25.40625 C 48.449219 25.34375 48.511719 25.269531 48.5625 25.1875 C 48.667969 25.082031 48.8125 24.96875 48.8125 24.96875 C 50.40625 23.375 50.402344 20.777344 48.8125 19.1875 C 48.015625 18.390625 46.980469 18 45.9375 18 Z M 43.75 21.28125 L 46.71875 24.25 L 31.46875 39.5 L 31.40625 39.53125 L 28.46875 36.59375 L 28.5 36.53125 Z M 6 41 L 6 43 L 8 43 L 8 41 Z M 42 41 L 42 43 L 44 43 L 44 41 Z" stroke-linecap="round" />
</g>
</svg>